<svg width="16" height="16" viewBox="0 0 16 16" fill="none" xmlns="http://www.w3.org/2000/svg">
<path fill-rule="evenodd" clip-rule="evenodd" d="M6.4703 0.751449C6.85879 0.773576 7.18773 1.04581 7.2821 1.42331L9.75026 11.2959L11.1183 7.64778C11.2484 7.30084 11.5801 7.071 11.9506 7.071H15.1111C15.602 7.071 16 7.46897 16 7.95989C16 8.45081 15.602 8.84877 15.1111 8.84877H12.5666L10.4125 14.593C10.2759 14.9573 9.91819 15.1905 9.5297 15.1683C9.14121 15.1462 8.81227 14.874 8.7179 14.4965L6.24974 4.62383L4.88168 8.272C4.75157 8.61893 4.41991 8.84877 4.04938 8.84877H0.888889C0.397969 8.84877 0 8.45081 0 7.95989C0 7.46897 0.397969 7.071 0.888889 7.071H3.43338L5.58746 1.32679C5.72409 0.962447 6.08181 0.729322 6.4703 0.751449Z" fill="white"/>
</svg>
