<svg width="16" height="16" viewBox="0 0 16 16" fill="none" xmlns="http://www.w3.org/2000/svg">
<g opacity="0.7">
<path d="M8 5.65625C6.70772 5.65625 5.65625 6.70772 5.65625 8C5.65625 9.29228 6.70772 10.3438 8 10.3438C9.29228 10.3438 10.3438 9.29228 10.3438 8C10.3438 6.70772 9.29228 5.65625 8 5.65625Z" fill="white"/>
<path d="M16 9.32203V6.678L13.831 6.25091C13.7124 5.85678 13.555 5.47681 13.359 5.11519L14.5693 3.29969L12.7003 1.43062L10.8848 2.64094C10.5232 2.445 10.1432 2.28753 9.74906 2.16897L9.32203 0H6.678L6.25091 2.169C5.85678 2.28756 5.47681 2.44503 5.11519 2.64097L3.29969 1.43062L1.43062 3.29969L2.64094 5.11519C2.445 5.47681 2.28753 5.85675 2.16897 6.25091L0 6.67797V9.322L2.169 9.74909C2.28756 10.1432 2.44503 10.5232 2.64097 10.8848L1.43062 12.7003L3.29969 14.5694L5.11519 13.3591C5.47681 13.555 5.85675 13.7125 6.25091 13.831L6.67797 16H9.322L9.74909 13.831C10.1432 13.7124 10.5232 13.555 10.8848 13.359L12.7003 14.5693L14.5694 12.7003L13.3591 10.8848C13.555 10.5232 13.7125 10.1432 13.831 9.74906L16 9.32203ZM8 11.2812C6.19091 11.2812 4.71875 9.80909 4.71875 8C4.71875 6.19091 6.19091 4.71875 8 4.71875C9.80909 4.71875 11.2812 6.19091 11.2812 8C11.2812 9.80909 9.80909 11.2812 8 11.2812Z" fill="white"/>
</g>
</svg>
