<svg width="16" height="16" viewBox="0 0 16 16" fill="none" xmlns="http://www.w3.org/2000/svg">
<path fill-rule="evenodd" clip-rule="evenodd" d="M15.0001 1.00003C14.4479 0.447724 13.5524 0.447671 13.0001 0.999912L7.99929 6L2.99982 1.00009C2.44755 0.447769 1.55209 0.447769 0.999823 1.00009C0.447622 1.55234 0.447622 2.44766 0.999823 2.99991L5.99947 8L0.999823 13.0001C0.447622 13.5523 0.447622 14.4477 0.999823 14.9999C1.55209 15.5522 2.44755 15.5522 2.99982 14.9999L7.99929 10L13.0001 15.0001C13.5524 15.5523 14.4479 15.5523 15.0001 15C15.5524 14.4477 15.5524 13.5523 15.0001 13L10.0005 8L15.0001 2.99997C15.5524 2.44769 15.5524 1.55231 15.0001 1.00003Z" fill="#6C6C6C"/>
</svg>
