<svg width="16" height="16" viewBox="0 0 16 16" fill="none" xmlns="http://www.w3.org/2000/svg">
<path fill-rule="evenodd" clip-rule="evenodd" d="M13.5247 3.49535C13.7841 3.49535 14 3.71068 14 3.98468V4.23801C14 4.50534 13.7841 4.72734 13.5247 4.72734H2.4759C2.21591 4.72734 2 4.50534 2 4.23801V3.98468C2 3.71068 2.21591 3.49535 2.4759 3.49535H4.41971C4.81457 3.49535 5.1582 3.21469 5.24703 2.81869L5.34882 2.36403C5.50702 1.7447 6.02766 1.33337 6.62351 1.33337H9.37649C9.96585 1.33337 10.4923 1.7447 10.6447 2.33136L10.7536 2.81803C10.8418 3.21469 11.1854 3.49535 11.5809 3.49535H13.5247ZM12.5372 12.7561C12.7402 10.8647 13.0955 6.37146 13.0955 6.32612C13.1084 6.18879 13.0637 6.05879 12.9749 5.95413C12.8796 5.85613 12.759 5.79813 12.626 5.79813H3.37901C3.24545 5.79813 3.11837 5.85613 3.03019 5.95413C2.94072 6.05879 2.89663 6.18879 2.90311 6.32612C2.9043 6.33445 2.91705 6.49273 2.93837 6.75734C3.03306 7.93285 3.29678 11.2068 3.46719 12.7561C3.58779 13.8974 4.33665 14.6147 5.42137 14.6407C6.25842 14.66 7.12075 14.6667 8.00253 14.6667C8.83309 14.6667 9.67662 14.66 10.5396 14.6407C11.6619 14.6214 12.4101 13.9167 12.5372 12.7561Z" fill="#EB5757"/>
</svg>
