<svg width="16" height="17" viewBox="0 0 16 17" fill="none" xmlns="http://www.w3.org/2000/svg">
<path d="M7.246 11.5871C7.20733 11.5495 7.042 11.4072 6.906 11.2748C6.05067 10.498 4.65067 8.47171 4.22333 7.41115C4.15467 7.25008 4.00933 6.84287 4 6.6253C4 6.41683 4.048 6.2181 4.14533 6.02845C4.28133 5.79205 4.49533 5.60241 4.748 5.4985C4.92333 5.4316 5.448 5.32769 5.45733 5.32769C6.03133 5.22378 6.964 5.16663 7.99467 5.16663C8.97667 5.16663 9.87133 5.22378 10.454 5.30886C10.4633 5.3186 11.1153 5.42251 11.3387 5.53617C11.7467 5.74464 12 6.15185 12 6.58764V6.6253C11.99 6.90912 11.7367 7.50597 11.7273 7.50597C11.2993 8.50938 9.968 10.4889 9.08333 11.2845C9.08333 11.2845 8.856 11.5086 8.714 11.606C8.51 11.758 8.25733 11.8333 8.00467 11.8333C7.72267 11.8333 7.46 11.7482 7.246 11.5871Z" fill="#6C6C6C"/>
</svg>
