<svg width="16" height="16" viewBox="0 0 16 16" fill="none" xmlns="http://www.w3.org/2000/svg">
<path fill-rule="evenodd" clip-rule="evenodd" d="M2.75229 1.33334H13.248C14.0319 1.33334 14.6668 1.98737 14.6668 2.79484V3.81584C14.6668 4.20755 14.5138 4.58371 14.2419 4.85805L9.90527 9.24468C9.83045 9.32105 9.72886 9.36347 9.62384 9.36276L5.99278 9.35145C5.88227 9.35145 5.77725 9.30408 5.70175 9.22135L1.71651 4.83826C1.47009 4.56745 1.3335 4.20968 1.3335 3.83847V2.79555C1.3335 1.98808 1.96842 1.33334 2.75229 1.33334ZM6.1869 10.5494L9.42328 10.5593C9.62508 10.56 9.78844 10.729 9.78844 10.9362V12.7569C9.78844 12.9648 9.67038 13.1528 9.48643 13.2398L6.54863 14.6193C6.47999 14.6511 6.40723 14.6667 6.33447 14.6667C6.23769 14.6667 6.14091 14.6384 6.05648 14.5825C5.90891 14.485 5.81967 14.3167 5.81967 14.1364V10.9263C5.81967 10.7177 5.98441 10.5487 6.1869 10.5494Z" fill="#1A6F3F"/>
</svg>
