<svg width="135" height="173" viewBox="0 0 135 173" fill="none" xmlns="http://www.w3.org/2000/svg">
<path d="M10.5919 154.472L6.01595 159.112V165H3.64795V142.6H6.01595V156.136L19.1679 142.6H21.8879L12.1919 152.744L22.5599 165H19.7439L10.5919 154.472Z" fill="#3D3D3D"/>
<path d="M31.3684 148.04C33.5658 148.04 35.2511 148.595 36.4244 149.704C37.5978 150.792 38.1845 152.413 38.1845 154.568V165H36.0084V162.376C35.4964 163.251 34.7391 163.933 33.7364 164.424C32.7551 164.915 31.5818 165.16 30.2164 165.16C28.3391 165.16 26.8458 164.712 25.7364 163.816C24.6271 162.92 24.0724 161.736 24.0724 160.264C24.0724 158.835 24.5844 157.683 25.6084 156.808C26.6538 155.933 28.3071 155.496 30.5684 155.496H35.9124V154.472C35.9124 153.021 35.5071 151.923 34.6965 151.176C33.8858 150.408 32.7018 150.024 31.1444 150.024C30.0778 150.024 29.0538 150.205 28.0724 150.568C27.0911 150.909 26.2484 151.389 25.5444 152.008L24.5204 150.312C25.3738 149.587 26.3978 149.032 27.5924 148.648C28.7871 148.243 30.0458 148.04 31.3684 148.04ZM30.5684 163.368C31.8484 163.368 32.9471 163.08 33.8645 162.504C34.7818 161.907 35.4644 161.053 35.9124 159.944V157.192H30.6324C27.7524 157.192 26.3124 158.195 26.3124 160.2C26.3124 161.181 26.6858 161.96 27.4324 162.536C28.1791 163.091 29.2244 163.368 30.5684 163.368Z" fill="#3D3D3D"/>
<path d="M53.2195 163.976C52.7928 164.36 52.2594 164.659 51.6194 164.872C51.0008 165.064 50.3501 165.16 49.6674 165.16C48.0888 165.16 46.8728 164.733 46.0195 163.88C45.1661 163.027 44.7395 161.821 44.7395 160.264V150.088H41.7314V148.168H44.7395V144.488H47.0115V148.168H52.1315V150.088H47.0115V160.136C47.0115 161.139 47.2568 161.907 47.7475 162.44C48.2595 162.952 48.9848 163.208 49.9235 163.208C50.3928 163.208 50.8408 163.133 51.2675 162.984C51.7155 162.835 52.0995 162.621 52.4195 162.344L53.2195 163.976Z" fill="#3D3D3D"/>
<path d="M63.2435 148.04C65.4408 148.04 67.1261 148.595 68.2994 149.704C69.4728 150.792 70.0594 152.413 70.0594 154.568V165H67.8834V162.376C67.3714 163.251 66.6141 163.933 65.6115 164.424C64.6301 164.915 63.4568 165.16 62.0914 165.16C60.2141 165.16 58.7208 164.712 57.6115 163.816C56.5021 162.92 55.9474 161.736 55.9474 160.264C55.9474 158.835 56.4595 157.683 57.4835 156.808C58.5288 155.933 60.1821 155.496 62.4435 155.496H67.7874V154.472C67.7874 153.021 67.3821 151.923 66.5715 151.176C65.7608 150.408 64.5768 150.024 63.0195 150.024C61.9528 150.024 60.9288 150.205 59.9475 150.568C58.9661 150.909 58.1234 151.389 57.4194 152.008L56.3955 150.312C57.2488 149.587 58.2728 149.032 59.4674 148.648C60.6621 148.243 61.9208 148.04 63.2435 148.04ZM62.4435 163.368C63.7234 163.368 64.8221 163.08 65.7395 162.504C66.6568 161.907 67.3394 161.053 67.7874 159.944V157.192H62.5075C59.6274 157.192 58.1875 158.195 58.1875 160.2C58.1875 161.181 58.5608 161.96 59.3074 162.536C60.0541 163.091 61.0994 163.368 62.4435 163.368Z" fill="#3D3D3D"/>
<path d="M83.6934 148.2H86.8134V162.36H95.5975V165H83.6934V148.2Z" fill="#3D3D3D"/>
<path d="M98.0606 148.2H101.181V165H98.0606V148.2Z" fill="#3D3D3D"/>
<path d="M108.845 150.816V155.928H116.957V158.568H108.845V165H105.725V148.2H117.989V150.816H108.845Z" fill="#3D3D3D"/>
<path d="M133.606 162.384V165H121.006V148.2H133.27V150.816H124.126V155.184H132.238V157.752H124.126V162.384H133.606Z" fill="#3D3D3D"/>
<path fill-rule="evenodd" clip-rule="evenodd" d="M70.5381 0C71.2756 0.656995 72.3378 1.57365 73.6541 2.70955C82.77 10.5762 104.071 28.9581 114.078 44.425C132.209 72.4488 131.996 95.5835 113.462 111.327C105.824 117.818 97.2688 122.422 85.1653 124.604L85.1652 124.604C85.1652 124.604 85.1651 124.604 85.1651 124.604C78.6578 125.988 66.7735 126 66.5737 126C66.5729 126 66.5723 126 66.5718 126C48.3403 125.867 31.8611 120.505 21.0584 111.327C2.52573 95.5835 2.31209 72.4493 20.4422 44.4249C26.6971 34.7574 37.2409 23.7871 46.5619 15.1373L53.2149 18.9486C44.1637 27.3485 34.0114 37.9115 28.0934 47.0574C16.5193 64.95 7.01598 89.9271 27.478 107.31C35.9393 114.499 48.729 118.917 62.9902 119.682V106.956L27.6297 85.1662L33.0905 80.4536L69.9516 103.168C70.1265 103.269 71.4508 105.524 71.4508 105.524V119.803C75.5807 119.69 80.2414 119.383 82.9775 118.622C82.9776 118.623 82.9777 118.623 82.9778 118.623L82.9778 118.623C93.3626 116.75 100.557 112.82 107.043 107.31C127.505 89.9266 118.001 64.949 106.426 47.0569C98.1927 34.3294 81.5544 19.207 71.4503 10.3843V54.5737L90.0172 43.8863L95.2599 48.7291L70.1939 63.1571C69.8527 63.1571 62.9897 60.9984 62.9897 60.7352C62.9977 2.94898 63.0145 2.77109 63.0529 2.36487C63.0554 2.33939 63.0579 2.31301 63.0604 2.27146L70.5381 0ZM97.7345 61.0462L67.2901 78.9994L36.5759 60.5501L31.1961 65.3111C31.6671 65.5945 64.4332 85.0678 64.932 85.3241H69.8539L103.055 65.8433L97.7345 61.0462ZM49.913 54.8635L39.8074 48.466L45.3535 43.8066L55.4598 50.2052L49.913 54.8635ZM84.9443 99.7931L109.179 85.371L103.829 80.5914L79.595 95.0135L84.9443 99.7931Z" fill="#1A6F3F"/>
</svg>
