<svg width="89" height="114" viewBox="0 0 89 114" fill="none" xmlns="http://www.w3.org/2000/svg">
<path d="M6.98293 101.791L3.96616 104.848V108.728H2.40503V93.9676H3.96616V102.887L12.6367 93.9676H14.4299L8.03774 100.652L14.8729 108.728H13.0165L6.98293 101.791Z" fill="white"/>
<path d="M20.68 97.5524C22.1286 97.5524 23.2397 97.9179 24.0132 98.6489C24.7868 99.3658 25.1735 100.434 25.1735 101.854V108.728H23.739V106.999C23.4014 107.576 22.9022 108.025 22.2412 108.349C21.5942 108.672 20.8207 108.834 19.9206 108.834C18.6829 108.834 17.6984 108.539 16.9671 107.948C16.2357 107.358 15.8701 106.577 15.8701 105.607C15.8701 104.666 16.2076 103.907 16.8827 103.33C17.5718 102.754 18.6618 102.466 20.1526 102.466H23.6757V101.791C23.6757 100.835 23.4085 100.111 22.874 99.6189C22.3396 99.1128 21.559 98.8598 20.5324 98.8598C19.8291 98.8598 19.1541 98.9792 18.5071 99.2182C17.8602 99.4432 17.3046 99.7595 16.8405 100.167L16.1654 99.0495C16.728 98.5716 17.4031 98.2061 18.1907 97.953C18.9783 97.6859 19.808 97.5524 20.68 97.5524ZM20.1526 107.653C20.9965 107.653 21.7208 107.463 22.3255 107.084C22.9303 106.69 23.3804 106.128 23.6757 105.397V103.583H20.1948C18.2961 103.583 17.3468 104.244 17.3468 105.565C17.3468 106.212 17.5929 106.725 18.0852 107.105C18.5774 107.47 19.2666 107.653 20.1526 107.653Z" fill="white"/>
<path d="M35.0855 108.054C34.8042 108.307 34.4526 108.503 34.0307 108.644C33.6228 108.771 33.1939 108.834 32.7438 108.834C31.7031 108.834 30.9014 108.553 30.3388 107.99C29.7763 107.428 29.495 106.634 29.495 105.607V98.9019H27.5119V97.6367H29.495V95.2118H30.9928V97.6367H34.3682V98.9019H30.9928V105.523C30.9928 106.184 31.1546 106.69 31.478 107.041C31.8156 107.379 32.2938 107.547 32.9126 107.547C33.222 107.547 33.5173 107.498 33.7986 107.4C34.094 107.301 34.3471 107.161 34.5581 106.978L35.0855 108.054Z" fill="white"/>
<path d="M41.6939 97.5524C43.1425 97.5524 44.2536 97.9179 45.0271 98.6489C45.8007 99.3658 46.1874 100.434 46.1874 101.854V108.728H44.7529V106.999C44.4153 107.576 43.9161 108.025 43.255 108.349C42.6081 108.672 41.8346 108.834 40.9345 108.834C39.6968 108.834 38.7123 108.539 37.981 107.948C37.2496 107.358 36.884 106.577 36.884 105.607C36.884 104.666 37.2215 103.907 37.8966 103.33C38.5857 102.754 39.6757 102.466 41.1665 102.466H44.6896V101.791C44.6896 100.835 44.4224 100.111 43.8879 99.6189C43.3535 99.1128 42.5729 98.8598 41.5462 98.8598C40.843 98.8598 40.168 98.9792 39.521 99.2182C38.8741 99.4432 38.3185 99.7595 37.8544 100.167L37.1793 99.0495C37.7419 98.5716 38.417 98.2061 39.2046 97.953C39.9921 97.6859 40.8219 97.5524 41.6939 97.5524ZM41.1665 107.653C42.0104 107.653 42.7347 107.463 43.3394 107.084C43.9442 106.69 44.3942 106.128 44.6896 105.397V103.583H41.2087C39.31 103.583 38.3607 104.244 38.3607 105.565C38.3607 106.212 38.6068 106.725 39.0991 107.105C39.5913 107.47 40.2805 107.653 41.1665 107.653Z" fill="white"/>
<path d="M55.1758 97.6578H57.2327V106.989H63.0236V108.728H55.1758V97.6578Z" fill="white"/>
<path d="M64.6475 97.6578H66.7044V108.728H64.6475V97.6578Z" fill="white"/>
<path d="M71.757 99.3816V102.75H77.1049V104.49H71.757V108.728H69.7001V97.6578H77.7852V99.3816H71.757Z" fill="white"/>
<path d="M88.0811 107.004V108.728H79.7744V97.6578H87.8596V99.3816H81.8313V102.26H87.1792V103.952H81.8313V107.004H88.0811Z" fill="white"/>
<path fill-rule="evenodd" clip-rule="evenodd" d="M46.5028 0C46.989 0.432924 47.6893 1.03695 48.557 1.78544C54.5667 6.96925 68.6096 19.0822 75.2067 29.2743C87.1601 47.7408 87.0197 62.9857 74.801 73.3603C69.7655 77.637 64.1253 80.6709 56.1459 82.1092L56.1458 82.1091C51.8553 83.0212 44.019 83.0288 43.8892 83.0289C43.8887 83.0289 43.8883 83.0289 43.888 83.0289C31.8687 82.9409 21.0046 79.4081 13.8829 73.3603C1.66505 62.9856 1.5242 47.7411 13.4767 29.2742C17.6002 22.9037 24.5513 15.6748 30.6963 9.97484L35.0823 12.4863C29.1152 18.0216 22.4223 24.9821 18.5208 31.0089C10.8904 42.7994 4.62528 59.2583 18.1151 70.7128C23.6933 75.4499 32.125 78.3615 41.5268 78.8654V70.4795L18.215 56.1211L21.8151 53.0157L46.1162 67.9834C46.2315 68.0503 47.1045 69.5359 47.1045 69.5359V78.9456C49.8272 78.8708 52.8998 78.6682 54.7036 78.1674C54.7037 78.1674 54.7038 78.1675 54.7038 78.1676L54.7038 78.1674C61.5501 76.9338 66.2933 74.3438 70.5688 70.7128C84.0585 59.258 77.7934 42.7988 70.1626 31.0086C64.7344 22.6217 53.7654 12.6566 47.1042 6.84283V35.9619L59.3446 28.9193L62.8009 32.1105L46.2759 41.618C46.051 41.618 41.5264 40.1955 41.5265 40.022C41.5317 1.94326 41.5428 1.82603 41.5682 1.55836C41.5698 1.54157 41.5714 1.52418 41.5731 1.4968L46.5028 0ZM64.4323 40.227L44.3615 52.0574L24.1129 39.9001L20.5662 43.0374C20.8768 43.2241 42.4781 56.0563 42.8069 56.2252H46.0518L67.9396 43.3881L64.4323 40.227ZM32.9055 36.1528L26.2433 31.9371L29.8996 28.8668L36.5623 33.0832L32.9055 36.1528ZM56.0002 65.7596L71.9772 56.256L68.4502 53.1065L52.4737 62.6101L56.0002 65.7596Z" fill="white"/>
</svg>
