<svg width="32" height="32" viewBox="0 0 32 32" fill="none" xmlns="http://www.w3.org/2000/svg">
<circle cx="16" cy="16" r="16" fill="white"/>
<path d="M23.9113 16.3127C24.0296 16.1222 24.0296 15.8801 23.9113 15.6873L23.422 14.8974C23.3409 14.7681 23.3154 14.6106 23.3455 14.4625L23.5403 13.5504C23.5867 13.3294 23.5055 13.1014 23.3293 12.9627L22.6035 12.3914C22.4853 12.2974 22.4064 12.161 22.3856 12.0082L22.2581 11.0843C22.2279 10.861 22.0726 10.6753 21.8616 10.6048L20.9874 10.318C20.8437 10.2709 20.7231 10.1675 20.6536 10.0335L20.2246 9.20834C20.1249 9.01557 19.9255 8.89568 19.7121 8.89568C19.7052 8.89568 19.6982 8.89568 19.6913 8.89568L18.7731 8.93094C18.7661 8.93094 18.7592 8.93094 18.7522 8.93094C18.6085 8.93094 18.4694 8.87687 18.3627 8.77814L17.681 8.15281C17.572 8.05407 17.4329 8 17.2915 8C17.2173 8 17.1431 8.01411 17.0735 8.04467L16.2226 8.3973C16.153 8.42551 16.0788 8.44196 16.0046 8.44196C15.9304 8.44196 15.8562 8.42786 15.7867 8.3973L14.9357 8.04467C14.8639 8.01646 14.7897 8 14.7178 8C14.5763 8 14.4372 8.05172 14.3283 8.15281L13.6466 8.77814C13.5399 8.87687 13.4008 8.93094 13.257 8.93094C13.2501 8.93094 13.2431 8.93094 13.2362 8.93094L12.318 8.89568C12.311 8.89568 12.304 8.89568 12.2971 8.89568C12.0838 8.89568 11.8844 9.01557 11.7847 9.20834L11.3557 10.0335C11.2862 10.1698 11.1656 10.2709 11.0219 10.318L10.1477 10.6048C9.93669 10.6729 9.78137 10.861 9.7512 11.0843L9.62367 12.0082C9.60283 12.161 9.52397 12.2974 9.40574 12.3914L8.67072 12.9627C8.49448 13.1014 8.41333 13.3294 8.4597 13.5504L8.65447 14.4625C8.68693 14.613 8.65911 14.7681 8.57795 14.8974L8.08869 15.6873C7.97044 15.8777 7.97044 16.1199 8.08869 16.3127L8.57795 17.1025C8.65911 17.2318 8.68461 17.3893 8.65447 17.5375L8.4597 18.4496C8.41333 18.6706 8.49448 18.8986 8.67072 19.0373L9.39647 19.6086C9.51472 19.7026 9.59355 19.8389 9.61442 19.9918L9.74195 20.9157C9.77209 21.139 9.92744 21.3247 10.1384 21.3952L10.8016 21.6115L11.0149 21.682C11.1587 21.729 11.2792 21.8325 11.3488 21.9665L11.7777 22.7916C11.8774 22.9844 12.0768 23.1043 12.2902 23.1043C12.2971 23.1043 12.3041 23.1043 12.311 23.1043L13.2292 23.0691C13.2362 23.0691 13.2431 23.0691 13.2501 23.0691C13.3938 23.0691 13.533 23.1232 13.6396 23.2219L14.3213 23.8472C14.4303 23.946 14.5694 24 14.7109 24C14.785 24 14.8592 23.9859 14.9288 23.9553L15.7797 23.6027C15.8493 23.5745 15.9235 23.5581 15.9977 23.5581C16.0719 23.5581 16.1461 23.5722 16.2156 23.6027L17.0666 23.9553C17.1385 23.9836 17.2127 24 17.2845 24C17.426 24 17.5651 23.9483 17.6741 23.8472L18.3557 23.2219C18.4624 23.1232 18.6016 23.0691 18.7453 23.0691C18.7523 23.0691 18.7592 23.0691 18.7662 23.0691L19.6844 23.1043C19.6913 23.1043 19.6983 23.1043 19.7052 23.1043C19.9185 23.1043 20.1179 22.9844 20.2177 22.7916L20.6466 21.9665C20.7162 21.8302 20.8367 21.729 20.9805 21.682L21.1938 21.6115L21.8569 21.3952C22.068 21.3271 22.2233 21.139 22.2535 20.9157L22.381 19.9918C22.4018 19.8389 22.4807 19.7026 22.5989 19.6086L23.3247 19.0373C23.5009 18.8986 23.5821 18.6706 23.5357 18.4496L23.3409 17.5375C23.3085 17.387 23.3363 17.2318 23.4175 17.1025L23.9113 16.3127ZM21.6089 18.4026C21.4906 18.6823 21.3561 18.9526 21.2008 19.2113C20.9503 19.6273 20.6512 20.0152 20.3058 20.3632C19.7469 20.9297 19.0954 21.3741 18.372 21.6844C17.6208 22.0064 16.8231 22.1686 16.0023 22.1686C15.1815 22.1686 14.3839 22.0065 13.6326 21.6844C12.9069 21.3741 12.2576 20.9297 11.6989 20.3632C11.3534 20.0129 11.0543 19.6273 10.8039 19.2113C10.6485 18.9527 10.5117 18.6847 10.3957 18.4026C10.0781 17.6409 9.9181 16.8322 9.9181 16C9.9181 15.1678 10.0781 14.3591 10.3957 13.5974C10.7018 12.8616 11.1401 12.2033 11.6988 11.6368C12.2576 11.0702 12.9092 10.6259 13.6326 10.3156C14.3838 9.99353 15.1815 9.83132 16.0023 9.83132C16.8231 9.83132 17.6207 9.99353 18.372 10.3156C19.0977 10.6259 19.7469 11.0702 20.3057 11.6368C20.8645 12.2033 21.3028 12.8639 21.6088 13.5974C21.9265 14.3591 22.0865 15.1678 22.0865 16C22.0865 16.8322 21.9265 17.6409 21.6089 18.4026Z" fill="#1A6F3F"/>
<path d="M15.9993 10.5343C13.0221 10.5343 10.6084 12.9816 10.6084 16.0001C10.6084 16.5008 10.6756 16.9874 10.8008 17.4482C11.4269 19.7638 13.5183 21.4659 15.9993 21.4659C18.4803 21.4659 20.5717 19.7638 21.1978 17.4482C21.3229 16.9874 21.3902 16.5008 21.3902 16.0001C21.3902 12.9816 18.9765 10.5343 15.9993 10.5343ZM18.3991 18.532C18.5035 19.028 17.9818 19.4159 17.5459 19.1643L15.9993 18.2757L14.4504 19.1643C14.0168 19.4135 13.4928 19.0256 13.5972 18.532L13.9682 16.7594L12.7578 15.6521L12.6233 15.5275C12.2547 15.189 12.4494 14.5684 12.941 14.5073L14.7031 14.2886L15.4706 12.6219C15.6793 12.1705 16.3123 12.1705 16.521 12.6219L17.2885 14.2886L19.0507 14.5073C19.5446 14.5684 19.737 15.189 19.3683 15.5275L19.2338 15.6521L18.0235 16.7594L18.3991 18.532Z" fill="#1A6F3F"/>
</svg>
