<svg width="16" height="16" viewBox="0 0 16 16" fill="none" xmlns="http://www.w3.org/2000/svg">
<path d="M15.9113 8.31265C16.0296 8.12223 16.0296 7.88009 15.9113 7.68732L15.422 6.89743C15.3409 6.76814 15.3154 6.61063 15.3455 6.46252L15.5403 5.55039C15.5867 5.32941 15.5055 5.10137 15.3293 4.96267L14.6035 4.39141C14.4853 4.29738 14.4064 4.16103 14.3856 4.00822L14.2581 3.08433C14.2279 2.861 14.0726 2.67528 13.8616 2.60476L12.9874 2.31795C12.8437 2.27093 12.7231 2.1675 12.6536 2.0335L12.2246 1.20834C12.1249 1.01557 11.9255 0.895679 11.7121 0.895679C11.7052 0.895679 11.6982 0.895679 11.6913 0.895679L10.7731 0.930942C10.7661 0.930942 10.7592 0.930942 10.7522 0.930942C10.6085 0.930942 10.4694 0.876872 10.3627 0.778136L9.68101 0.152806C9.57204 0.0540699 9.43292 0 9.29148 0C9.21728 0 9.14308 0.0141052 9.07352 0.0446664L8.22257 0.397296C8.15301 0.425506 8.07884 0.441962 8.00464 0.441962C7.93044 0.441962 7.85624 0.427857 7.78668 0.397296L6.93573 0.0446664C6.86385 0.016456 6.78965 0 6.7178 0C6.57633 0 6.43721 0.051719 6.32826 0.152806L5.64657 0.778136C5.53991 0.876872 5.40079 0.930942 5.25703 0.930942C5.25008 0.930942 5.2431 0.930942 5.23617 0.930942L4.31797 0.895679C4.31102 0.895679 4.30404 0.895679 4.2971 0.895679C4.08379 0.895679 3.88438 1.01557 3.78468 1.20834L3.35572 2.0335C3.28616 2.16985 3.16559 2.27093 3.02186 2.31795L2.14772 2.60476C1.93669 2.67293 1.78137 2.861 1.7512 3.08433L1.62367 4.00822C1.60283 4.16103 1.52397 4.29738 1.40574 4.39141L0.670722 4.96267C0.49448 5.10137 0.413326 5.32941 0.4597 5.55039L0.654469 6.46252C0.68693 6.61298 0.659106 6.76814 0.577952 6.89743L0.0886892 7.68732C-0.0295631 7.87774 -0.0295631 8.11988 0.0886892 8.31265L0.577952 9.10254C0.659106 9.23184 0.684611 9.38935 0.654469 9.53745L0.4597 10.4496C0.413326 10.6706 0.49448 10.8986 0.670722 11.0373L1.39647 11.6086C1.51472 11.7026 1.59355 11.8389 1.61442 11.9918L1.74195 12.9157C1.77209 13.139 1.92744 13.3247 2.13844 13.3952L2.80158 13.6115L3.0149 13.682C3.15866 13.729 3.27923 13.8325 3.34879 13.9665L3.77774 14.7916C3.87745 14.9844 4.07683 15.1043 4.29017 15.1043C4.29713 15.1043 4.30408 15.1043 4.31104 15.1043L5.22923 15.0691C5.23619 15.0691 5.24314 15.0691 5.2501 15.0691C5.39384 15.0691 5.53296 15.1232 5.63964 15.2219L6.3213 15.8472C6.43028 15.946 6.5694 16 6.71086 16C6.78504 16 6.85924 15.9859 6.9288 15.9553L7.77975 15.6027C7.84931 15.5745 7.92351 15.5581 7.9977 15.5581C8.07188 15.5581 8.14608 15.5722 8.21564 15.6027L9.06659 15.9553C9.13847 15.9836 9.21267 16 9.28454 16C9.42598 16 9.5651 15.9483 9.67408 15.8472L10.3557 15.2219C10.4624 15.1232 10.6016 15.0691 10.7453 15.0691C10.7523 15.0691 10.7592 15.0691 10.7662 15.0691L11.6844 15.1043C11.6913 15.1043 11.6983 15.1043 11.7052 15.1043C11.9185 15.1043 12.1179 14.9844 12.2177 14.7916L12.6466 13.9665C12.7162 13.8302 12.8367 13.729 12.9805 13.682L13.1938 13.6115L13.8569 13.3952C14.068 13.3271 14.2233 13.139 14.2535 12.9157L14.381 11.9918C14.4018 11.8389 14.4807 11.7026 14.5989 11.6086L15.3247 11.0373C15.5009 10.8986 15.5821 10.6706 15.5357 10.4496L15.3409 9.53745C15.3085 9.38702 15.3363 9.23184 15.4175 9.10254L15.9113 8.31265ZM13.6089 10.4026C13.4906 10.6823 13.3561 10.9526 13.2008 11.2113C12.9503 11.6273 12.6512 12.0152 12.3058 12.3632C11.7469 12.9297 11.0954 13.3741 10.372 13.6844C9.62075 14.0064 8.82311 14.1686 8.0023 14.1686C7.18151 14.1686 6.38386 14.0065 5.63264 13.6844C4.90687 13.3741 4.25764 12.9297 3.69886 12.3632C3.3534 12.0129 3.05427 11.6273 2.80385 11.2113C2.6485 10.9527 2.51168 10.6847 2.39575 10.4026C2.07811 9.64089 1.9181 8.83217 1.9181 7.99999C1.9181 7.16778 2.07809 6.35909 2.39575 5.59741C2.70181 4.86159 3.14006 4.20334 3.69884 3.63679C4.25762 3.07023 4.90919 2.62591 5.63261 2.3156C6.38384 1.99353 7.18149 1.83132 8.00227 1.83132C8.82308 1.83132 9.62073 1.99353 10.372 2.3156C11.0977 2.62591 11.7469 3.07023 12.3057 3.63679C12.8645 4.20334 13.3028 4.86394 13.6088 5.59741C13.9265 6.35909 14.0865 7.16778 14.0865 7.99999C14.0865 8.83219 13.9265 9.64089 13.6089 10.4026Z" fill="#1A6F3F"/>
<path d="M7.9993 2.5343C5.02213 2.5343 2.6084 4.98155 2.6084 8.00007C2.6084 8.5008 2.67564 8.98743 2.80085 9.4482C3.42689 11.7638 5.51833 13.4659 7.9993 13.4659C10.4803 13.4659 12.5717 11.7638 13.1978 9.4482C13.3229 8.98743 13.3902 8.5008 13.3902 8.00007C13.3902 4.98155 10.9765 2.5343 7.9993 2.5343ZM10.3991 10.532C10.5035 11.028 9.98177 11.4159 9.54586 11.1643L7.9993 10.2757L6.45043 11.1643C6.01684 11.4135 5.49282 11.0256 5.59716 10.532L5.96815 8.7594L4.75781 7.65214L4.62332 7.52754C4.25465 7.18902 4.44942 6.56839 4.94096 6.50727L6.70315 6.28864L7.47065 4.62187C7.67933 4.17051 8.31233 4.17051 8.52101 4.62187L9.28849 6.28864L11.0507 6.50727C11.5446 6.56839 11.737 7.18902 11.3683 7.52754L11.2338 7.65214L10.0235 8.7594L10.3991 10.532Z" fill="#1A6F3F"/>
</svg>
